<svg width="39" height="27" viewBox="0 0 39 27" fill="none" xmlns="http://www.w3.org/2000/svg">
<path d="M38.3224 10.7669L30.1269 1.04083C29.8524 0.715118 29.5088 0.453061 29.1206 0.273201C28.7323 0.0933409 28.3089 7.37284e-05 27.8801 0H1.95C0.873234 0 0 0.863638 0 1.92857V19.2857C0 20.3506 0.873234 21.2143 1.95 21.2143H3.9C3.9 24.4097 6.51909 27 9.75 27C12.9809 27 15.6 24.4097 15.6 21.2143H23.4C23.4 24.4097 26.0191 27 29.25 27C32.4809 27 35.1 24.4097 35.1 21.2143H37.05C38.1268 21.2143 39 20.3506 39 19.2857V12.6189C39 11.9421 38.7599 11.287 38.3224 10.7669ZM3.9 9.64286V3.85714H9.75V9.64286H3.9ZM9.75 24.1071C8.13455 24.1071 6.825 22.812 6.825 21.2143C6.825 19.6166 8.13455 18.3214 9.75 18.3214C11.3655 18.3214 12.675 19.6166 12.675 21.2143C12.675 22.812 11.3655 24.1071 9.75 24.1071ZM19.5 9.64286H13.65V3.85714H19.5V9.64286ZM29.25 24.1071C27.6345 24.1071 26.325 22.812 26.325 21.2143C26.325 19.6166 27.6345 18.3214 29.25 18.3214C30.8655 18.3214 32.175 19.6166 32.175 21.2143C32.175 22.812 30.8655 24.1071 29.25 24.1071ZM23.4 9.64286V3.85714H27.4231L32.2981 9.64286H23.4Z" fill="url(#paint0_linear_2005_184)"/>
<defs>
<linearGradient id="paint0_linear_2005_184" x1="19.5204" y1="0" x2="19.5204" y2="26.1058" gradientUnits="userSpaceOnUse">
<stop offset="0.48" stop-color="#B88746"/>
<stop offset="1" stop-color="#FDF5A6"/>
</linearGradient>
</defs>
</svg>
