<svg width="34" height="32" viewBox="0 0 34 32" fill="none" xmlns="http://www.w3.org/2000/svg">
<path d="M20.9751 13.125C21.625 13.125 22.1023 13.7353 21.9456 14.3661L17.7906 31.093C17.5393 32.1049 16.101 32.1049 15.8496 31.093L11.6947 14.3661C11.538 13.7353 12.0152 13.125 12.6652 13.125H20.9751ZM16.0229 0C15.6024 0 15.2268 0.263094 15.0831 0.658311L12.0988 8.86665C11.8616 9.51882 12.3446 10.2083 13.0386 10.2083H20.6017C21.2956 10.2083 21.7786 9.51882 21.5415 8.86664L18.5572 0.658311C18.4135 0.263093 18.0379 0 17.6174 0H16.0229ZM24.8933 9.55002C25.037 9.94524 25.4126 10.2083 25.8331 10.2083H32.7789C33.4256 10.2083 33.8778 9.57001 33.5049 9.04167L28.3555 1.83313C27.9509 1.2663 27.4168 0.804259 26.7977 0.485422C26.1785 0.166585 25.4922 0.000164991 24.7957 0L22.8488 0C22.1548 0 21.6719 0.689515 21.909 1.34169L24.8933 9.55002ZM26.0414 13.125C25.5807 13.125 25.1796 13.4398 25.0701 13.8873L22.3095 25.169C22.0545 26.2112 23.3967 26.8688 24.064 26.0286L33.3853 14.2917C33.7832 13.7776 33.341 13.125 32.6909 13.125H26.0414ZM8.5702 13.8873C8.46069 13.4398 8.05959 13.125 7.59886 13.125H0.952056C0.302185 13.125 -0.138264 13.7787 0.260752 14.2917L9.57554 26.026C10.2427 26.8664 11.5852 26.2088 11.3301 25.1665L8.5702 13.8873ZM7.80716 10.2083C8.22768 10.2083 8.60328 9.94524 8.74697 9.55002L11.7313 1.34169C11.9684 0.689515 11.4854 0 10.7915 0H8.8445C8.14807 0.000164991 7.46175 0.166585 6.84259 0.485422C6.22343 0.804259 5.68934 1.2663 5.28471 1.83313L0.135335 9.04167C-0.238584 9.56984 0.214299 10.2083 0.861433 10.2083H7.80716Z" fill="url(#paint0_linear_2159_150)"/>
<defs>
<linearGradient id="paint0_linear_2159_150" x1="16.8382" y1="0" x2="16.8382" y2="33.8409" gradientUnits="userSpaceOnUse">
<stop offset="0.48" stop-color="#B88746"/>
<stop offset="1" stop-color="#FDF5A6"/>
</linearGradient>
</defs>
</svg>
