<svg width="1000" height="901" viewBox="0 0 1000 901" fill="none" xmlns="http://www.w3.org/2000/svg">
<g clip-path="url(#clip0_2159_515)">
<path d="M560.88 391.099L760 4.57029L711.84 4.46583L531 356.091L466.573 272.99L401.987 355.869L401.52 354.955L221.56 4.67475L173.333 4.77922L372.547 391.426L181.334 660.107L227.893 660.198L466.56 324.06L705.333 659.95L752.573 659.819L560.867 391.086L560.88 391.099ZM405.333 665.839L455.6 665.957L456.267 360.452L405.32 432.232L405.333 665.839ZM456.48 265.26L457.067 0.156696L405.307 0V330.928L456.48 265.26ZM527.76 331.176L528.48 0.156696L476.733 0V265.364L527.76 331.176ZM476.747 360.335L527.547 431.801L527.027 665.957L476.76 665.839L476.747 360.335Z" fill="url(#paint0_linear_2159_515)"/>
<path d="M164.04 897.905V900.739H141.68V869.765H163.373V872.599H145.027V883.607H161.387V886.401H145.027V897.892L164.04 897.905ZM201.28 900.739L191.067 887.106L180.907 900.739H177.067L189.08 884.808L177.84 869.765H181.68L191.213 882.418L200.693 869.752H204.307L193.107 884.716L205.16 900.739H201.293H201.28ZM242.293 897.905V900.739H219.933V869.765H241.627V872.599H223.28V883.607H239.627V886.401H223.28V897.892L242.293 897.905ZM273.653 901C270.52 901 267.693 900.321 265.16 898.963C262.704 897.65 260.658 895.709 259.24 893.348C257.808 890.882 257.072 888.088 257.107 885.252C257.107 882.275 257.827 879.585 259.24 877.195C260.693 874.779 262.68 872.886 265.2 871.528C267.733 870.17 270.56 869.491 273.693 869.491C276.053 869.491 278.227 869.883 280.2 870.64C282.2 871.424 283.88 872.533 285.267 874.009L283.133 876.098C281.919 874.889 280.464 873.939 278.858 873.305C277.252 872.671 275.531 872.369 273.8 872.416C271.414 872.387 269.061 872.968 266.973 874.1C264.967 875.178 263.295 876.766 262.133 878.697C260.973 880.692 260.379 882.956 260.413 885.252C260.356 887.521 260.938 889.762 262.095 891.729C263.252 893.696 264.94 895.313 266.973 896.403C269.013 897.526 271.293 898.075 273.787 898.075C275.525 898.133 277.256 897.832 278.869 897.194C280.481 896.555 281.938 895.592 283.147 894.366L285.267 896.443C283.847 897.936 282.101 899.096 280.16 899.838C278.087 900.63 275.878 901.025 273.653 901ZM314.987 901C310.893 901 307.693 899.851 305.413 897.552C303.12 895.241 301.973 891.898 301.973 887.498V869.765H305.307V887.367C305.307 890.971 306.147 893.648 307.8 895.424C309.453 897.2 311.853 898.075 314.987 898.075C318.147 898.075 320.56 897.2 322.213 895.424C323.867 893.661 324.693 890.971 324.693 887.367V869.765H327.947V887.498C327.947 891.898 326.813 895.254 324.52 897.552C322.253 899.851 319.08 901 314.987 901ZM353.493 872.599H342.373V869.765H367.947V872.599H356.84V900.739H353.493V872.599ZM383.227 869.765H386.573V900.739H383.24L383.227 869.765ZM432.747 869.765L418.747 900.739H415.44L401.44 869.765H405.04L417.16 896.665L429.36 869.765H432.747ZM469.64 897.905V900.739H447.28V869.765H468.96V872.599H450.613V883.607H466.973V886.401H450.613V897.892L469.64 897.905ZM542.04 869.765V900.739H538.84V875.955L526.413 896.795H524.827L512.413 876.085V900.739H509.2V869.765H511.96L525.693 892.721L539.293 869.765H542.04ZM576.133 901C573 901 570.147 900.321 567.6 898.963C565.125 897.633 563.062 895.676 561.627 893.296C560.192 890.85 559.456 888.072 559.493 885.252C559.415 882.464 560.129 879.709 561.555 877.295C562.982 874.881 565.066 872.902 567.573 871.58C570.195 870.172 573.144 869.453 576.133 869.491C579.253 869.491 582.08 870.17 584.573 871.528C587.107 872.886 589.107 874.779 590.547 877.195C591.987 879.585 592.707 882.262 592.707 885.252C592.707 888.229 591.987 890.932 590.547 893.348C589.117 895.719 587.051 897.661 584.573 898.963C581.986 900.341 579.079 901.043 576.133 901ZM576.133 898.075C578.627 898.075 580.88 897.539 582.907 896.443C584.886 895.361 586.527 893.772 587.653 891.846C588.787 889.861 589.373 887.668 589.373 885.252C589.402 882.955 588.804 880.691 587.64 878.697C586.534 876.76 584.893 875.167 582.907 874.1C580.839 872.966 578.503 872.385 576.133 872.416C573.747 872.387 571.394 872.968 569.307 874.1C567.305 875.17 565.644 876.761 564.507 878.697C563.351 880.694 562.762 882.957 562.8 885.252C562.8 887.668 563.373 889.861 564.52 891.846C565.67 893.768 567.323 895.354 569.307 896.443C571.347 897.539 573.627 898.075 576.133 898.075ZM630.067 884.756C631.932 885.076 633.627 886.017 634.867 887.419C636.049 888.837 636.657 890.631 636.573 892.46C636.63 893.65 636.382 894.836 635.854 895.91C635.326 896.983 634.533 897.912 633.547 898.61C631.547 900.034 628.613 900.739 624.693 900.739H610.133V869.765H623.773C627.293 869.765 630.027 870.457 631.947 871.841C633.907 873.225 634.88 875.184 634.88 877.717C634.93 879.279 634.472 880.815 633.573 882.105C632.694 883.31 631.482 884.233 630.067 884.756ZM613.48 872.455V883.698H623.56C626.12 883.698 628.093 883.228 629.48 882.288C630.16 881.815 630.706 881.181 631.07 880.446C631.434 879.711 631.602 878.899 631.56 878.083C631.607 877.272 631.44 876.464 631.076 875.734C630.711 875.005 630.162 874.379 629.48 873.918C628.093 872.951 626.12 872.455 623.56 872.455H613.48ZM624.64 898.036C627.48 898.036 629.613 897.566 631.067 896.625C632.507 895.672 633.227 894.197 633.227 892.186C633.227 888.334 630.373 886.401 624.64 886.401H613.48V898.036H624.64ZM654.147 869.765H657.48V900.739H654.147V869.765ZM677.72 869.765H681.053V897.905H698.773V900.739H677.707L677.72 869.765ZM714.253 869.765H717.6V900.739H714.267L714.253 869.765ZM743.987 872.599H732.867V869.765H758.44V872.599H747.32V900.739H743.987V872.599ZM784.333 890.031V900.739H781.04V890.031L768.387 869.765H771.96L782.8 887.145L793.64 869.765H796.987L784.333 890.031ZM53.6933 761.802C73.3333 764.609 84.0667 774.625 84.0667 790.072C84.0667 808.98 70.1467 819.831 45.8 819.831H0V816.698H1.17333C3.36 816.698 5.04 816.214 6.21333 815.065C8.05333 813.25 8.89333 809.973 8.89333 804.88V732.722C8.89333 727.629 8.05333 724.339 6.21333 722.537C5.04 721.387 3.52 720.891 1.50667 720.891H0V717.601H41.9467C63.4267 717.601 75.68 725.827 75.68 739.956C75.68 751.956 65.28 759.334 53.6933 761.802ZM67.6267 790.072C67.6267 773.489 56.56 763.956 37.0933 763.956H24.16V815.392H44.2933C59.4 815.392 67.6267 806.512 67.6267 790.072ZM38.4267 759.347C52.6933 759.347 60.24 752.779 60.24 739.956C60.24 728.452 53.8667 722.04 41.9467 722.04H24.16V759.347H38.4267ZM93.3333 728.791C89.8133 723.189 86.96 720.891 83.76 720.891H82.76V717.601H115.653V720.891H114.133C112.293 720.891 111.12 721.218 110.453 722.197C109.44 723.686 109.947 726.31 111.627 730.254L131.933 768.226L151.893 735.686C156.427 728.282 157.933 724.339 156.76 722.367C156.267 721.387 154.92 720.891 152.573 720.891H150.72V717.601H173.707V720.891H172.533C168.173 720.891 164.147 724.182 158.933 732.382L135.12 771.83V804.867C135.28 810.129 136.12 813.25 137.973 815.052C139.147 816.214 140.653 816.698 142.667 816.698H144.173V819.831H111.28V816.698H112.787C114.787 816.698 116.48 816.214 117.48 815.065C119.333 813.25 120.173 809.973 120.173 804.88V778.242L95.6667 732.722C94.8267 731.246 93.9867 729.927 93.32 728.778L93.3333 728.791ZM232.4 736.339L231.387 738.637H228.187V717.614H321.16V738.637H317.973L316.973 736.339C313.107 726.31 306.227 722.04 294.307 722.04H282.4V804.867C282.4 809.96 283.24 813.25 285.08 815.052C286.253 816.214 287.613 816.698 289.787 816.698H291.293V819.831H258.067V816.698H259.573C261.587 816.698 263.107 816.214 264.28 815.065C266.12 813.25 266.96 809.973 266.96 804.88V722.04H255.053C243.133 722.04 236.267 726.31 232.4 736.339ZM354.12 722.537C352.267 724.339 351.44 727.629 351.44 732.722V760.496H403.12V732.722C403.12 727.629 402.28 724.339 400.44 722.537C399.267 721.387 397.747 720.891 395.733 720.891H394.227V717.601H427.453V720.891H425.947C423.933 720.891 422.413 721.387 421.24 722.537C419.4 724.339 418.56 727.629 418.56 732.722V804.867C418.56 809.96 419.4 813.25 421.24 815.052C422.253 816.214 423.76 816.698 425.773 816.698H427.453V819.831H394.227V816.698H395.733C397.747 816.698 399.427 816.214 400.44 815.065C402.28 813.25 403.12 809.973 403.12 804.88V764.923H351.427V804.88C351.427 809.973 352.267 813.25 354.12 815.065C355.293 816.214 356.8 816.698 358.813 816.698H360.333V819.831H327.267V816.698H328.44C330.627 816.698 332.307 816.214 333.48 815.065C335.32 813.25 336.16 809.973 336.16 804.88V732.722C336.16 727.629 335.32 724.339 333.48 722.537C332.307 721.387 330.787 720.891 328.773 720.891H327.267V717.601H360.333V720.891H358.813C356.813 720.891 355.293 721.387 354.12 722.537ZM441.507 815.065C443.36 813.25 444.2 809.973 444.2 804.88V732.722C444.2 727.629 443.36 724.339 441.507 722.537C440.333 721.387 438.84 720.891 436.813 720.891H435.307V717.601H503.6V736.169H500.24L499.907 735.516C496.227 726.154 489.333 722.04 476.573 722.04H459.64V762.141H472.56C482.96 762.141 488 760 490.693 754.411L491.187 753.105H494.547V777.093H491.187L490.68 775.617C488 769.219 482.96 766.738 472.547 766.738H459.64V815.392H479.6C491.187 815.392 497.56 812.101 501.427 803.888C501.427 803.888 502.6 801.42 503.267 799.774L503.44 799.448H506.627V819.818H435.293V816.698H436.813C438.827 816.698 440.333 816.214 441.507 815.065ZM576.2 732.226C573.187 724.182 570.16 720.891 565.973 720.891H564.8V717.601H598.667V720.891H596.987C594.973 720.891 593.467 721.544 592.453 722.863C590.773 725.331 590.773 729.431 592.293 734.537C592.453 735.02 609.907 785.646 613.933 797.476L630.387 753.432L624 732.722C620.987 724.338 617.96 720.891 613.6 720.891H612.267V717.601H646.32V720.891H645.48C645.147 720.891 643.48 720.891 642.293 721.218C641.606 721.542 640.982 721.984 640.453 722.523C640.12 723.02 639.613 723.686 639.44 724.352C638.773 725.984 638.773 727.956 639.28 730.254L658.747 794.852V794.355C659.08 793.533 661.427 785.319 664.613 774.964C667.467 765.105 670.987 753.419 673.507 744.552C675.693 737.161 677.373 731.899 677.373 731.742C678.707 727.133 678.88 724.508 677.533 722.693C676.533 721.387 674.68 720.891 671.493 720.891H669.333V717.601H694.827V720.891H693.333C688.64 720.891 685.28 723.686 682.933 730.097L656.413 819.831H651.053L650.88 819.179L632.747 760.822L610.947 819.831H605.747L605.573 819.179L576.2 732.226ZM703.28 816.711V819.831H676.6V816.698H677.933C682.973 816.698 686.667 813.25 689.853 805.207L721.4 717.601H727.947L728.28 718.254L765.04 805.363C768.053 811.762 771.08 815.222 775.107 816.371C775.267 816.371 775.44 816.371 775.773 816.541C776.28 816.541 777.787 816.698 778.293 816.698H778.8V819.831H741.707V816.698H745.24C746.907 816.371 748.253 815.875 748.92 814.739C750.107 813.094 749.933 810.456 748.587 806.682L738.187 781.376H703.6L695.72 803.718C694.04 808.98 694.04 812.428 695.547 814.399C696.56 816.045 698.573 816.698 701.587 816.698H703.267L703.28 816.711ZM705.293 776.936H736.333L719.72 736.169L705.293 776.936ZM786.213 720.891C784.027 720.891 782.347 721.544 781.347 722.863C779.84 725.004 780.013 728.608 781.853 733.388L809.2 802.242L832.36 734.041C833.867 728.608 833.693 725.161 832.187 723.033C831.013 721.544 829.173 720.891 826.147 720.891H823.973V717.601H850.987V720.891H848.8C843.267 720.891 840.413 725.331 838.067 732.226L808.36 819.831H800.48L800.133 819.179L765.573 732.069C762.053 724.012 758.853 720.891 755 720.891H753.827V717.601H788.053V720.891H786.213ZM863.04 815.065C864.88 813.25 865.72 809.973 865.72 804.88V732.722C865.72 727.629 864.88 724.339 863.04 722.537C861.867 721.387 860.347 720.891 858.333 720.891H856.827V717.601H925.133V736.169H921.773L921.44 735.516C917.747 726.154 910.867 722.04 898.107 722.04H881.173V762.141H894.08C904.48 762.141 909.52 760 912.213 754.411L912.707 753.105H916.067V777.093H912.707L912.213 775.617C909.52 769.219 904.48 766.738 894.08 766.738H881.16V815.392H901.133C912.707 815.392 919.08 812.101 922.947 803.888C922.947 803.888 924.12 801.42 924.787 799.774L924.96 799.448H928.16V819.818H856.827V816.698H858.347C860.347 816.698 861.867 816.214 863.04 815.065ZM973.333 692.072C966.261 692.072 959.478 694.824 954.477 699.721C949.476 704.619 946.667 711.262 946.667 718.188C946.667 725.115 949.476 731.757 954.477 736.655C959.478 741.553 966.261 744.304 973.333 744.304C980.406 744.304 987.189 741.553 992.19 736.655C997.19 731.757 1000 725.115 1000 718.188C1000 711.262 997.19 704.619 992.19 699.721C987.189 694.824 980.406 692.072 973.333 692.072ZM973.333 739.081C967.675 739.081 962.249 736.88 958.248 732.962C954.248 729.043 952 723.729 952 718.188C952 712.647 954.248 707.333 958.248 703.415C962.249 699.497 967.675 697.295 973.333 697.295C978.991 697.295 984.417 699.497 988.418 703.415C992.419 707.333 994.667 712.647 994.667 718.188C994.667 723.729 992.419 729.043 988.418 732.962C984.417 736.88 978.991 739.081 973.333 739.081ZM974 721.505H970.16V729.94H965.333V706.984H974.027C976.307 706.854 978.56 707.481 980.427 708.786C981.194 709.422 981.797 710.227 982.187 711.135C982.576 712.043 982.74 713.028 982.667 714.01C982.729 715.386 982.362 716.748 981.614 717.914C980.866 719.08 979.773 719.996 978.48 720.539L983.547 729.914V730.175H978.373L974 721.74M970.16 717.927H974.053C975.072 717.983 976.073 717.656 976.853 717.013C977.206 716.677 977.477 716.268 977.648 715.816C977.819 715.365 977.884 714.881 977.84 714.401C977.88 713.926 977.818 713.448 977.657 712.998C977.497 712.548 977.241 712.137 976.907 711.79C976.515 711.454 976.058 711.199 975.563 711.042C975.068 710.885 974.545 710.828 974.027 710.876H970.16V717.927Z" fill="#FDF5A6"/>
</g>
<defs>
<linearGradient id="paint0_linear_2159_515" x1="466.973" y1="0" x2="466.973" y2="643.902" gradientUnits="userSpaceOnUse">
<stop offset="0.48" stop-color="#B88746"/>
<stop offset="1" stop-color="#FDF5A6"/>
</linearGradient>
<clipPath id="clip0_2159_515">
<rect width="1000" height="901" fill="white"/>
</clipPath>
</defs>
</svg>
