<svg width="35" height="35" viewBox="0 0 35 35" fill="none" xmlns="http://www.w3.org/2000/svg">
<path d="M27.9562 9.6833C27.3291 6.51872 24.9812 5.1333 21.7145 5.1333H8.91032C5.06032 5.1333 2.49365 7.0583 2.49365 11.55V19.0604C2.49365 22.2979 3.82074 24.1937 6.00824 25.0104C6.32907 25.1271 6.67907 25.2291 7.04365 25.2875C7.62699 25.4187 8.25407 25.477 8.91032 25.477H21.7291C25.5791 25.477 28.1457 23.5521 28.1457 19.0604V11.55C28.1457 10.8646 28.0874 10.2521 27.9562 9.6833ZM8.06449 17.5C8.06449 18.0979 7.56865 18.5937 6.97074 18.5937C6.37282 18.5937 5.87699 18.0979 5.87699 17.5V13.125C5.87699 12.5271 6.37282 12.0312 6.97074 12.0312C7.56865 12.0312 8.06449 12.5271 8.06449 13.125V17.5ZM15.3124 19.1625C13.1832 19.1625 11.4624 17.4416 11.4624 15.3125C11.4624 13.1833 13.1832 11.4625 15.3124 11.4625C17.4416 11.4625 19.1624 13.1833 19.1624 15.3125C19.1624 17.4416 17.4416 19.1625 15.3124 19.1625ZM24.7332 17.5C24.7332 18.0979 24.2374 18.5937 23.6395 18.5937C23.0416 18.5937 22.5457 18.0979 22.5457 17.5V13.125C22.5457 12.5271 23.0416 12.0312 23.6395 12.0312C24.2374 12.0312 24.7332 12.5271 24.7332 13.125V17.5Z" fill="url(#paint0_linear_2005_199)"/>
<path d="M32.5207 15.925V23.4354C32.5207 27.9271 29.9541 29.8667 26.0895 29.8667H13.2853C12.1916 29.8667 11.2145 29.7062 10.3687 29.3854C9.68324 29.1375 9.08532 28.7729 8.60407 28.3062C8.34157 28.0583 8.54574 27.6646 8.91032 27.6646H21.7145C27.1103 27.6646 30.3187 24.4562 30.3187 19.075V11.55C30.3187 11.2 30.7124 10.9812 30.9603 11.2437C31.952 12.2937 32.5207 13.825 32.5207 15.925Z" fill="url(#paint1_linear_2005_199)"/>
<defs>
<linearGradient id="paint0_linear_2005_199" x1="15.3331" y1="5.1333" x2="15.3331" y2="24.8033" gradientUnits="userSpaceOnUse">
<stop offset="0.48" stop-color="#B88746"/>
<stop offset="1" stop-color="#FDF5A6"/>
</linearGradient>
<linearGradient id="paint1_linear_2005_199" x1="20.5156" y1="11.1279" x2="20.5156" y2="29.2461" gradientUnits="userSpaceOnUse">
<stop offset="0.48" stop-color="#B88746"/>
<stop offset="1" stop-color="#FDF5A6"/>
</linearGradient>
</defs>
</svg>
