<svg width="38" height="42" viewBox="0 0 38 42" fill="none" xmlns="http://www.w3.org/2000/svg">
<path d="M13.2314 39.36L17.7569 35.5531C18.4367 34.9704 19.5633 34.9704 20.2431 35.5531L24.7686 39.36C25.8174 39.8844 27.0993 39.36 27.4878 38.2335L28.3424 35.6503C28.556 35.0287 28.3424 34.1158 27.8762 33.6497L23.4673 29.2213C23.1371 28.9105 22.8846 28.289 22.8846 27.8423V22.3067C22.8846 21.491 23.4867 21.1025 24.2442 21.4133L33.7808 25.5309C35.2764 26.1719 36.5 25.3756 36.5 23.744V21.2385C36.5 19.9372 35.5289 18.4416 34.3246 17.9366L23.4673 13.2557C23.1565 13.1197 22.8846 12.7118 22.8846 12.3622V6.53538C22.8846 4.70963 21.5444 2.55369 19.9129 1.71851C19.3302 1.42716 18.6504 1.42716 18.0677 1.71851C16.4362 2.55369 15.096 4.72905 15.096 6.5548V12.3817C15.096 12.7313 14.8241 13.1392 14.5133 13.2751L3.67536 17.956C2.47114 18.4416 1.5 19.9372 1.5 21.2385V23.744C1.5 25.3756 2.72364 26.1719 4.2192 25.5309L13.7558 21.4133C14.4939 21.0831 15.1154 21.491 15.1154 22.3067V27.8423C15.1154 28.289 14.8629 28.9105 14.5522 29.2213L10.1432 33.6497C9.67702 34.1158 9.46337 35.0093 9.67703 35.6503L10.5316 38.2335C10.8812 39.36 12.1632 39.9039 13.2314 39.36Z" stroke="url(#paint0_linear_2014_283)" stroke-width="3" stroke-linecap="round" stroke-linejoin="round"/>
<defs>
<linearGradient id="paint0_linear_2014_283" x1="19.5" y1="39.21" x2="18.565" y2="5.3659" gradientUnits="userSpaceOnUse">
<stop stop-color="#FDF5A6"/>
<stop offset="1" stop-color="#B88746"/>
</linearGradient>
</defs>
</svg>
