<svg width="35" height="35" viewBox="0 0 35 35" fill="none" xmlns="http://www.w3.org/2000/svg">
<path d="M14.5833 34.9992H0V32.0826H14.5833V34.9992ZM11.6667 26.2493H0V29.1659H11.6667V26.2493ZM8.75 20.4159H0V23.3326H8.75V20.4159ZM34.9869 16.808C35.0773 19.1619 34.692 21.5098 33.8542 23.7114C33.0164 25.9129 31.7432 27.9229 30.1107 29.6211C28.4782 31.3194 26.5201 32.6709 24.3533 33.595C22.1865 34.5191 19.8556 34.9967 17.5 34.9992V32.0826C17.5 31.309 17.1927 30.5672 16.6457 30.0202C16.0987 29.4732 15.3569 29.1659 14.5833 29.1659V26.2493C14.5833 25.4757 14.276 24.7338 13.7291 24.1869C13.1821 23.6399 12.4402 23.3326 11.6667 23.3326V20.4159C11.6667 19.6424 11.3594 18.9005 10.8124 18.3535C10.2654 17.8066 9.52355 17.4993 8.75 17.4993H0C0.00277483 15.1436 0.480564 12.8127 1.4048 10.6459C2.32903 8.4791 3.68072 6.52095 5.37906 4.88851C7.07739 3.25607 9.08748 1.98288 11.2891 1.14506C13.4908 0.30725 15.8388 -0.077977 18.1927 0.0124162C22.5787 0.224094 26.7287 2.06162 29.8336 5.16674C32.9384 8.27186 34.7756 12.422 34.9869 16.808ZM16.0417 8.44741V16.3428L20.844 21.1451L22.906 19.083L18.9583 15.1353V8.44741H16.0417Z" fill="url(#paint0_linear_2159_18)"/>
<defs>
<linearGradient id="paint0_linear_2159_18" x1="17.5182" y1="-0.000488281" x2="17.5182" y2="33.8401" gradientUnits="userSpaceOnUse">
<stop offset="0.48" stop-color="#B88746"/>
<stop offset="1" stop-color="#FDF5A6"/>
</linearGradient>
</defs>
</svg>
